<svg width="274" height="87" viewBox="0 0 274 87" fill="none" xmlns="http://www.w3.org/2000/svg">
<path d="M72.9404 44.3282C72.9404 57.7349 56.6121 68.6031 36.4702 68.6031C16.3283 68.6031 0 57.7349 0 44.3282C0 30.9215 16.3283 20.0533 36.4702 20.0533C56.6121 20.0533 49.0775 44.3282 72.9404 44.3282Z" fill="#DFC0C0"/>
<path d="M274 47.2474C274 60.6541 257.672 71.5223 237.53 71.5223C217.388 71.5223 201.06 60.6541 201.06 47.2474C223.339 62.0234 217.388 22.9725 237.53 22.9725C257.672 22.9725 274 33.8407 274 47.2474Z" fill="#DFC0C0"/>
<path d="M74.2215 60.1596C69.5767 60.1596 65.2598 59.4199 61.2708 57.9406C57.3363 56.4612 53.9211 54.3792 51.0249 51.6945C48.1287 48.955 45.861 45.7498 44.2216 42.0788C42.637 38.4079 41.8446 34.4082 41.8446 30.0798C41.8446 25.6966 42.637 21.6969 44.2216 18.0807C45.861 14.4098 48.1287 11.232 51.0249 8.54726C53.9211 5.80775 57.3363 3.69833 61.2708 2.219C65.2598 0.739667 69.5767 0 74.2215 0C78.921 0 83.2379 0.739667 87.1723 2.219C91.1067 3.69833 94.522 5.80775 97.4182 8.54726C100.314 11.232 102.555 14.4098 104.139 18.0807C105.779 21.6969 106.598 25.6966 106.598 30.0798C106.598 34.4082 105.779 38.4079 104.139 42.0788C102.555 45.7498 100.314 48.955 97.4182 51.6945C94.522 54.3792 91.1067 56.4612 87.1723 57.9406C83.2379 59.4199 78.921 60.1596 74.2215 60.1596ZM74.2215 44.4622C76.0248 44.4622 77.6915 44.1335 79.2215 43.476C80.8062 42.8185 82.1723 41.8871 83.3199 40.6817C84.522 39.4215 85.451 37.9148 86.1067 36.1615C86.7625 34.3534 87.0903 32.3262 87.0903 30.0798C87.0903 27.8334 86.7625 25.8336 86.1067 24.0803C85.451 22.2722 84.522 20.7655 83.3199 19.5601C82.1723 18.2999 80.8062 17.3411 79.2215 16.6836C77.6915 16.0261 76.0248 15.6974 74.2215 15.6974C72.4183 15.6974 70.7243 16.0261 69.1396 16.6836C67.6095 17.3411 66.2434 18.2999 65.0412 19.5601C63.8937 20.7655 62.9921 22.2722 62.3363 24.0803C61.6806 25.8336 61.3527 27.8334 61.3527 30.0798C61.3527 32.3262 61.6806 34.3534 62.3363 36.1615C62.9921 37.9148 63.8937 39.4215 65.0412 40.6817C66.2434 41.8871 67.6095 42.8185 69.1396 43.476C70.7243 44.1335 72.4183 44.4622 74.2215 44.4622Z" fill="black"/>
<path d="M112.969 58.8447V46.9278L133.706 27.6965C135.018 26.4363 135.974 25.3405 136.575 24.409C137.231 23.4776 137.668 22.6558 137.887 21.9435C138.105 21.1764 138.215 20.4642 138.215 19.8067C138.215 18.3821 137.75 17.2863 136.821 16.5193C135.892 15.6974 134.499 15.2865 132.641 15.2865C130.947 15.2865 129.335 15.7522 127.805 16.6836C126.275 17.5603 125.072 18.8752 124.198 20.6285L109.608 13.314C111.685 9.36915 114.799 6.16392 118.952 3.69837C123.105 1.23281 128.269 3.22092e-05 134.444 3.22092e-05C138.98 3.22092e-05 142.996 0.739699 146.493 2.21903C149.99 3.69837 152.723 5.78039 154.69 8.46511C156.657 11.1498 157.641 14.3277 157.641 17.9986C157.641 19.8615 157.395 21.7243 156.903 23.5872C156.466 25.4501 155.537 27.4225 154.116 29.5045C152.695 31.5318 150.592 33.8056 147.805 36.3259L132.231 50.5439L129.198 43.8048H158.952V58.8447H112.969Z" fill="black"/>
<path d="M200.525 60.1596C195.88 60.1596 191.563 59.42 187.574 57.9406C183.64 56.4613 180.225 54.3793 177.329 51.6946C174.432 48.9551 172.165 45.7498 170.525 42.0789C168.941 38.408 168.148 34.4083 168.148 30.0798C168.148 25.6966 168.941 21.697 170.525 18.0808C172.165 14.4099 174.432 11.232 177.329 8.54732C180.225 5.80781 183.64 3.69839 187.574 2.21906C191.563 0.739724 195.88 5.63661e-05 200.525 5.63661e-05C205.225 5.63661e-05 209.542 0.739724 213.476 2.21906C217.41 3.69839 220.826 5.80781 223.722 8.54732C226.618 11.232 228.858 14.4099 230.443 18.0808C232.082 21.697 232.902 25.6966 232.902 30.0798C232.902 34.4083 232.082 38.408 230.443 42.0789C228.858 45.7498 226.618 48.9551 223.722 51.6946C220.826 54.3793 217.41 56.4613 213.476 57.9406C209.542 59.42 205.225 60.1596 200.525 60.1596ZM200.525 44.4623C202.328 44.4623 203.995 44.1335 205.525 43.476C207.11 42.8186 208.476 41.8871 209.623 40.6817C210.826 39.4216 211.755 37.9148 212.41 36.1616C213.066 34.3535 213.394 32.3262 213.394 30.0798C213.394 27.8335 213.066 25.8336 212.41 24.0803C211.755 22.2722 210.826 20.7655 209.623 19.5601C208.476 18.3 207.11 17.3411 205.525 16.6837C203.995 16.0262 202.328 15.6974 200.525 15.6974C198.722 15.6974 197.028 16.0262 195.443 16.6837C193.913 17.3411 192.547 18.3 191.345 19.5601C190.197 20.7655 189.296 22.2722 188.64 24.0803C187.984 25.8336 187.656 27.8335 187.656 30.0798C187.656 32.3262 187.984 34.3535 188.64 36.1616C189.296 37.9148 190.197 39.4216 191.345 40.6817C192.547 41.8871 193.913 42.8186 195.443 43.476C197.028 44.1335 198.722 44.4623 200.525 44.4623Z" fill="black"/>
<path d="M27.4412 55.9379C45.3836 80.2128 74.7221 80.2128 135.095 80.2128C188.08 80.2128 230.084 82.8515 245.915 55.9379" stroke="black" stroke-width="13" stroke-linecap="round"/>
</svg>
